<?xml version="1.0" standalone="yes"?>
<svg width="120" height="120">
<path style="fill:#ffffff; stroke:none;" d="M0 0L0 30L1 30C5.88893 13.0617 24.7242 1.48564 42 6.15895C47.6572 7.6893 54.6091 14.8225 60 14.8225C65.2884 14.8225 71.5938 7.84019 77 6.30093C94.5793 1.2957 113.975 12.5897 119 30L120 30L120 0L0 0z"/>
<path style="fill:#000000; stroke:none;" d="M28 5.46451C6.55368 9.33123 -7.24447 33.5408 1.90509 54C8.4148 68.5563 23.935 79.935 35 91C40.9982 96.9982 46.9391 103.061 53 108.995C55.0225 110.976 57.7623 114.461 61 113.654C68.8235 111.704 78.3726 97.6274 84 92C102.91 73.0898 138.928 43.1146 110.907 15.0934C101.607 5.79418 86.3702 2.33405 74 6.95139C69.7421 8.54073 64.4641 14.0247 60 14.0247C56.326 14.0247 52.2725 9.84586 49 8.32407C42.5199 5.31069 35.0597 4.19166 28 5.46451z"/>
<path style="fill:#524189; stroke:none;" d="M28 13L28 14L37 14L28 13z"/>
<path style="fill:#53428b; stroke:none;" d="M80 13L80 14L89 14L80 13z"/>
<path style="fill:#886ce4; stroke:none;" d="M26 14.5324C9.20913 18.5326 3.86995 38.8777 10.9992 53C16.9758 64.839 30.7097 74.7097 40 84C43.89 87.89 54.9861 103.154 61 101.654C67.6323 100.001 75.2652 88.7348 80 84C94.8711 69.1289 128.777 42.3199 103.96 20.213C95.9772 13.1021 81.2121 11.4294 72 17.1443C68.5367 19.2928 64.2512 25.9431 60 25.9444C56.1137 25.9457 52.0897 20.1382 49 18.108C42.5121 13.8449 33.5562 12.7323 26 14.5324z"/>
<path style="fill:#2d244b; stroke:none;" d="M41.6667 14.3333L42.3333 14.6667L41.6667 14.3333z"/>
<path style="fill:#53428c; stroke:none;" d="M77.6667 14.3333L78.3333 14.6667L77.6667 14.3333z"/>
<path style="fill:#493a7a; stroke:none;" d="M92.6667 14.3333L93.3333 14.6667L92.6667 14.3333z"/>
<path style="fill:#9c89e9; stroke:none;" d="M26.0579 29.0826C21.9075 31.0251 21.8312 36.0755 22.0432 40C22.6536 51.301 32.5835 58.6337 40 65.9992C43.1293 69.107 47.8463 74.827 52.8519 71.9676C63.1005 66.113 38.739 48.9668 35.6034 44C33.252 40.2753 34.9534 36.0113 33.2577 32.189C32.0436 29.4523 28.9263 27.74 26.0579 29.0826z"/>
<path style="fill:#42346e; stroke:none;" d="M112 34L112 43L113 43L112 34z"/>
<path style="fill:#3f3269; stroke:none;" d="M7 35L7 43L8 43L7 35z"/>
<path style="fill:#53428b; stroke:none;" d="M8 45L8 48L9 48L8 45z"/>
<path style="fill:#55438e; stroke:none;" d="M111 45L111 48L112 48L111 45z"/>
<path style="fill:#2b2247; stroke:none;" d="M110.333 49.6667L110.667 50.3333L110.333 49.6667z"/>
<path style="fill:#ffffff; stroke:none;" d="M0 50L0 120L120 120L120 50L119 50C113.506 69.0266 89.5939 85.4061 76 99C72.697 102.303 64.2353 114.168 59 112.793C53.0108 111.22 46.2889 101.289 42 97C26.8346 81.8346 11.9683 67.7096 0 50z"/>
</svg>
